<?xml version="1.0" encoding="UTF-8"?> <svg xmlns="http://www.w3.org/2000/svg" width="56" height="30" viewBox="0 0 56 30" fill="none"> <path d="M29.494 30L22.271 6.46375H22.0864C22.3463 11.2517 22.4762 14.446 22.4762 16.0465V30H16.7923V0H25.4516L32.5515 22.9412H32.6746L40.2054 0H48.8648V30H42.9345V15.8003C42.9345 15.13 42.9414 14.357 42.955 13.4815C42.9824 12.606 43.0782 10.2804 43.2423 6.50479H43.0576L35.3217 30H29.494Z" fill="#0E0E0E"></path> <path fill-rule="evenodd" clip-rule="evenodd" d="M27.4103 13.8526C16.9193 18.6873 6.82722 24.8847 2.72649 27.4376C2.18551 27.7743 1.47393 27.6088 1.13715 27.0678C0.800369 26.5268 0.965911 25.8152 1.5069 25.4785C5.7543 22.8343 15.6061 16.3072 26.0626 11.4884C36.5357 6.662 47.739 3.48758 52.507 1.72624C53.1048 1.50541 53.7684 1.81099 53.9892 2.40876C54.21 3.00653 53.9044 3.67013 53.3067 3.89095C48.6324 5.61765 37.8846 9.02563 27.4103 13.8526Z" fill="#EFE224"></path> <path d="M6.98456 30V0H13.3457V30H6.98456Z" fill="#0E0E0E"></path> </svg> 